<svg viewBox="0 0 107.55 180.15" xmlns="http://www.w3.org/2000/svg" xmlns:xlink="http://www.w3.org/1999/xlink"><clipPath id="a" transform="translate(.03)"><path d="m107.52 113.05-53.76 66.17-53.76-66.17z"/></clipPath><path d="m.03 36.24h107.52v78.52h-107.52z" fill="#234182"/><path d="m55.64 87.1 2.18 6.39 6.75.1-5.4 4.04 1.99 6.45-5.52-3.89-5.51 3.89 1.99-6.45-5.4-4.04 6.75-.1z" fill="#fff"/><path d="m32.3 89.74 1.5 4.4 4.65.07-3.72 2.79 1.37 4.44-3.8-2.68-3.81 2.68 1.38-4.44-3.73-2.79 4.66-.07z" fill="#fff"/><path d="m78.99 89.74 1.5 4.4 4.65.07-3.72 2.79 1.37 4.44-3.8-2.68-3.8 2.68 1.37-4.44-3.72-2.79 4.65-.07z" fill="#fff"/><path d="m.03 0h107.52v37.6h-107.52z" fill="#bf2025"/><path d="m.03 37.39h107.52v2.07h-107.52z" fill="#fff"/><path d="m22.8 84.81c-7.9 0-14.35-4.81-14.35-12.41v-22.4h9.33v22.21c0 3.19 1.92 5 5 5s5.12-1.85 5.12-5v-22.21h9.33v22.4c.02 7.6-6.54 12.41-14.43 12.41z" fill="#fff" transform="translate(.03)"/><path d="m52.45 84.81c-5.81 0-10.56-1-14.4-4.56l6-5.43c2 1.8 5.44 2.43 8.49 2.43 3.67 0 5.43-1.12 5.43-3.11a2.72 2.72 0 0 0 -.74-2 4.39 4.39 0 0 0 -2.51-.92l-4.62-.62c-3.36-.43-5.92-1.45-7.62-3a9.05 9.05 0 0 1 -2.62-6.93c0-6.31 5.23-10.91 13.87-10.91 5.44 0 9.55 1.16 12.8 4.12l-5.87 5.33c-2.4-2.18-5.54-2-7.2-2-3.25 0-4.58 1.69-4.58 3.2a2.17 2.17 0 0 0 .74 1.59 4.42 4.42 0 0 0 2.62 1l4.59.59c3.41.43 5.86 1.4 7.46 2.86 2 1.79 2.83 4.36 2.83 7.56 0 6.99-6.67 10.8-14.67 10.8z" fill="#fff" transform="translate(.03)"/><path d="m91.81 84.52-1.76-5.14h-11.68l-1.87 5.14h-9.76l13.82-34.52h7.2l13.81 34.52zm-7.41-21.43-3.4 9.21h6.6z" fill="#fff" transform="translate(.03)"/><path d="m.03 39.66h107.52v87.67h-107.52z" fill="none"/><path d="m107.55 113.05-53.76 66.17-53.76-66.17z" fill="#fff"/><g clip-path="url(#a)" fill="#ec2227"><path d="m0 113.98h8.27v66.17h-8.27z"/><path d="m16.54 113.98h8.27v66.17h-8.27z"/><path d="m33.09 113.98h8.27v66.17h-8.27z"/><path d="m49.63 113.98h8.27v66.17h-8.27z"/><path d="m66.17 113.98h8.27v66.17h-8.27z"/><path d="m82.72 113.98h8.27v66.17h-8.27z"/><path d="m99.26 113.98h8.27v66.17h-8.27z"/></g><g fill="#fff"><path d="m.03 112.99h107.52v1.99h-107.52z"/><path d="m24.27 13v13.48h-2v-10.48l-2.14 10.48h-1.13l-2.08-10.48v10.48h-2v-13.48h3l1.64 7.87 1.67-7.87z" transform="translate(.03)"/><path d="m27.27 26.48h-2.27l2.51-13.48h2.87l2.48 13.46h-2.24l-.41-3h-2.53zm.74-5h1.87l-.88-5.77z" transform="translate(.03)"/><path d="m33.73 13h3.43a3.54 3.54 0 0 1 2.73 1 4.38 4.38 0 0 1 .93 3.08v5.33a4.35 4.35 0 0 1 -.93 3.07 3.54 3.54 0 0 1 -2.73 1h-3.43zm2.32 11.56h.8a1.67 1.67 0 0 0 1.29-.41 2.25 2.25 0 0 0 .37-1.47v-5.87a2.3 2.3 0 0 0 -.37-1.48 1.67 1.67 0 0 0 -1.29-.41h-.8z" transform="translate(.03)"/><path d="m42.59 26.48v-13.48h6.19v2h-3.88v3.5h3v2h-3v3.95h4.1v2z" transform="translate(.03)"/><path d="m54.39 26.48v-13.48h2.31v13.48z" transform="translate(.03)"/><path d="m58.79 26.48v-13.48h2.14l2.81 7.7v-7.7h2.09v13.48h-2l-3-8.41v8.41z" transform="translate(.03)"/><path d="m72.65 15h-2.24v-2h6.79v2h-2.2v11.48h-2.35z" transform="translate(.03)"/><path d="m78.09 26.48v-13.48h2.32v5.5h2.46v-5.5h2.31v13.48h-2.31v-6h-2.46v6z" transform="translate(.03)"/><path d="m87 26.48v-13.48h6.19v2h-3.93v3.5h3v2h-3v3.95h4.14v2z" transform="translate(.03)"/></g></svg>